<svg viewBox="0 0 512 512" xmlns="http://www.w3.org/2000/svg"><circle cx="256" cy="256" fill="#ffa426" r="256"/><path d="m218.3 302.51h76v78.6h-76z" fill="#505560"/><path d="m456.57 88.15v201.09a29.64 29.64 0 0 1 -29.64 29.63h-341.26a29.64 29.64 0 0 1 -29.67-29.63v-201.09a29.64 29.64 0 0 1 29.67-29.63h341.26a29.64 29.64 0 0 1 29.64 29.63z" fill="#636978"/><path d="m172.66 318.87h-87a29.64 29.64 0 0 1 -29.66-29.63v-201.09a29.64 29.64 0 0 1 29.67-29.63h87a29.64 29.64 0 0 0 -29.67 29.63v201.09a29.64 29.64 0 0 0 29.66 29.63z" fill="#595f6b"/><rect fill="#636978" height="32" rx="16" width="140.83" x="185.89" y="376.1"/><path d="m456.57 88.15v196.75h-400.57v-196.75a29.64 29.64 0 0 1 29.67-29.63h341.26a29.64 29.64 0 0 1 29.64 29.63z" fill="#b3f2d7"/><path d="m172.66 58.52a29.64 29.64 0 0 0 -29.66 29.63v196.75h-87v-196.75a29.64 29.64 0 0 1 29.67-29.63z" fill="#a3d8bf"/><path d="m461.93 408.1a256 256 0 0 1 -411.86 0z" fill="#8a4711"/><path d="m428 445.64a256 256 0 0 1 -343.94 0z" fill="#70350e"/><path d="m418.81 102.84v141.71a22.76 22.76 0 0 1 -22.75 22.75h-279.51a22.75 22.75 0 0 1 -22.74-22.75v-141.71a22.74 22.74 0 0 1 22.74-22.74h279.51a22.75 22.75 0 0 1 22.75 22.74z" fill="#fff"/><path d="m418.81 102.84v13.26h-325v-13.26a22.74 22.74 0 0 1 22.74-22.74h279.51a22.75 22.75 0 0 1 22.75 22.74z" fill="#23a8fe"/><path d="m190.14 165.82 9.86-3.82a7.34 7.34 0 0 0 4.69-6.84 7.35 7.35 0 0 0 -10.16-6.79l-38 15.72a7.35 7.35 0 0 0 -4.53 6.71v3.71a7.33 7.33 0 0 0 4.54 6.79l38 15.72a7.35 7.35 0 0 0 10.16-6.79 7.36 7.36 0 0 0 -4.7-6.85l-9.87-3.82a7.35 7.35 0 0 1 .01-13.74z" fill="#505560"/><path d="m261.27 134.41a7.35 7.35 0 0 0 -7.17 5.75l-14.1 63.5a7.33 7.33 0 0 0 7.18 8.94 7.35 7.35 0 0 0 7.17-5.75l14.12-63.5a7.34 7.34 0 0 0 -7.2-8.94z" fill="#505560"/><path d="m351.85 164-38-15.72a7.35 7.35 0 0 0 -10.16 6.79 7.34 7.34 0 0 0 4.69 6.84l9.89 3.85a7.35 7.35 0 0 1 0 13.7l-9.88 3.82a7.36 7.36 0 0 0 -4.69 6.85 7.35 7.35 0 0 0 10.16 6.87l38-15.72a7.34 7.34 0 0 0 4.53-6.79v-3.69a7.36 7.36 0 0 0 -4.54-6.8z" fill="#505560"/><g fill="none" stroke="#595f6b" stroke-linecap="round" stroke-miterlimit="10" stroke-width="10"><path d="m152.03 228.1h110.38"/><path d="m152.03 250.1h66.27"/><path d="m235.48 250.1h33.14"/><path d="m289.66 228.1h61.5"/><path d="m289.66 250.1h61.5"/></g><circle cx="123.41" cy="98.1" fill="#f92814" r="9.06"/><circle cx="152.03" cy="98.1" fill="#ffda45" r="9.06"/><circle cx="180.66" cy="98.1" fill="#76d67b" r="9.06"/></svg>